<svg width="26" height="26" viewBox="0 0 26 26" fill="none" xmlns="http://www.w3.org/2000/svg">
<path d="M23.675 1H2.325C1.593 1 1 1.593 1 2.325V23.676C1 24.407 1.593 25 2.325 25H13.82V15.706H10.692V12.084H13.82V9.413C13.82 6.313 15.713 4.625 18.479 4.625C19.804 4.625 20.942 4.724 21.274 4.768V8.008L19.356 8.009C17.852 8.009 17.561 8.724 17.561 9.772V12.085H21.148L20.681 15.707H17.561V25H23.677C24.407 25 25 24.407 25 23.675V2.325C25 1.593 24.407 1 23.675 1Z" fill="#FCB72B" stroke="black"/>
</svg>
